# xmcd
#
# Track frame offsets:
#	150
#	14415
#	27412
#	40300
#	49212
#	60267
#	71285
#	83480
#	93932
#	103035
#	115412
#	126020
#	137317
#	147392
#	163295
#	176332
#	187140
#	197625
#
# Disc length: 2853 seconds
#
# Revision: 1
# Processed by: cddbd v1.5.2PL0 Copyright (c) Steve Scherf et al.
# Submitted via: EasyCDDAExtractor 12.0.1.1
#
DISCID=f40b2312
DTITLE=Roy Drusky - 18 Original Country Classics
DYEAR=1996
DGENRE=Country
TTITLE0=El Paso
TTITLE1=Crystal Chandeliers
TTITLE2=Honey Come Back
TTITLE3=Ring of Fire
TTITLE4=End of the World
TTITLE5=Lonely Street
TTITLE6=Take Good Care of Her
TTITLE7=Battle of New Orleans
TTITLE8=Abilene
TTITLE9=Crying time
TTITLE10=Talk Back Trembling Lips
TTITLE11=Legend in My Time
TTITLE12=Waiting for a Train
TTITLE13=Sunday Morning Coming Down
TTITLE14=Almost Persuaded
TTITLE15=When Two Worlds Collide
TTITLE16=Together Again
TTITLE17=Early Morning Rain
EXTD=
EXTT0=
EXTT1=
EXTT2=
EXTT3=
EXTT4=
EXTT5=
EXTT6=
EXTT7=
EXTT8=
EXTT9=
EXTT10=
EXTT11=
EXTT12=
EXTT13=
EXTT14=
EXTT15=
EXTT16=
EXTT17=
PLAYORDER=
